<svg xmlns="http://www.w3.org/2000/svg" xmlns:xlink="http://www.w3.org/1999/xlink" width="500" zoomAndPan="magnify" viewBox="0 0 375 374.999991" height="500" preserveAspectRatio="xMidYMid meet" version="1.0"><defs><g/><clipPath id="id1"><path d="M 152 155 L 223 155 L 223 206.675781 L 152 206.675781 Z M 152 155 " clip-rule="nonzero"/></clipPath><clipPath id="id2"><path d="M 136.761719 119.675781 L 238 119.675781 L 238 178 L 136.761719 178 Z M 136.761719 119.675781 " clip-rule="nonzero"/></clipPath></defs><rect x="-37.5" width="450" fill="rgb(100%, 100%, 100%)" y="-37.499999" height="449.999989" fill-opacity="1"/><rect x="-37.5" width="450" fill="rgb(100%, 100%, 100%)" y="-37.499999" height="449.999989" fill-opacity="1"/><rect x="-37.5" width="450" fill="rgb(100%, 100%, 100%)" y="-37.499999" height="449.999989" fill-opacity="1"/><rect x="-37.5" width="450" fill="rgb(100%, 100%, 100%)" y="-37.499999" height="449.999989" fill-opacity="1"/><g clip-path="url(#id1)"><path fill="rgb(8.628845%, 81.959534%, 86.669922%)" d="M 214.597656 158.886719 L 214.597656 182.148438 L 187.386719 197.902344 L 160.175781 182.148438 L 160.175781 158.886719 L 152.597656 155.34375 L 152.597656 186.535156 L 187.386719 206.679688 L 222.175781 186.535156 L 222.175781 155.34375 L 214.597656 158.886719 " fill-opacity="1" fill-rule="nonzero"/></g><path fill="rgb(0%, 0%, 0%)" d="M 210.410156 179.722656 L 187.386719 193.054688 L 164.359375 179.722656 L 164.359375 151.675781 L 187.386719 138.34375 L 210.410156 151.675781 L 210.410156 179.722656 " fill-opacity="1" fill-rule="nonzero"/><g clip-path="url(#id2)"><path fill="rgb(8.628845%, 81.959534%, 86.669922%)" d="M 233.597656 169.316406 C 233.597656 168.609375 233.25 167.988281 232.714844 167.613281 L 232.714844 145.789062 L 237.980469 143.324219 L 187.386719 119.675781 L 136.792969 143.324219 L 187.386719 166.976562 L 230.316406 146.910156 L 230.316406 167.613281 C 229.785156 167.988281 229.4375 168.613281 229.4375 169.316406 C 229.4375 169.722656 229.550781 170.097656 229.75 170.421875 L 226.585938 177.914062 L 227.960938 177.914062 L 230.34375 172.625 L 229.214844 177.914062 L 236.449219 177.914062 L 233.28125 170.421875 C 233.480469 170.097656 233.597656 169.722656 233.597656 169.316406 " fill-opacity="1" fill-rule="nonzero"/></g><g fill="rgb(21.958923%, 71.369934%, 100%)" fill-opacity="1"><g transform="translate(104.383745, 237.105277)"><g><path d="M 1.546875 0 L 1.546875 -17.765625 L 5.296875 -17.765625 L 5.296875 -3.09375 L 12.90625 -3.09375 L 12.90625 0 Z M 1.546875 0 "/></g></g></g><g fill="rgb(21.958923%, 71.369934%, 100%)" fill-opacity="1"><g transform="translate(120.026057, 237.105277)"><g><path d="M 1.546875 0 L 1.546875 -17.765625 L 13.515625 -17.765625 L 13.515625 -14.671875 L 5.296875 -14.671875 L 5.296875 -10.4375 L 12.890625 -10.4375 L 12.890625 -7.34375 L 5.296875 -7.34375 L 5.296875 -3.09375 L 13.546875 -3.09375 L 13.546875 0 Z M 1.546875 0 "/></g></g></g><g fill="rgb(21.958923%, 71.369934%, 100%)" fill-opacity="1"><g transform="translate(136.769781, 237.105277)"><g><path d="M 4.609375 0 L 0.578125 0 L 6.71875 -17.765625 L 11.546875 -17.765625 L 17.671875 0 L 13.65625 0 L 12.328125 -4.046875 L 5.921875 -4.046875 Z M 6.875 -6.984375 L 11.390625 -6.984375 L 9.203125 -13.703125 L 9.0625 -13.703125 Z M 6.875 -6.984375 "/></g></g></g><g fill="rgb(21.958923%, 71.369934%, 100%)" fill-opacity="1"><g transform="translate(156.817714, 237.105277)"><g><path d="M 1.546875 0 L 1.546875 -17.765625 L 8.546875 -17.765625 C 10.566406 -17.765625 12.132812 -17.238281 13.25 -16.1875 C 14.363281 -15.132812 14.921875 -13.722656 14.921875 -11.953125 C 14.921875 -10.742188 14.648438 -9.707031 14.109375 -8.84375 C 13.566406 -7.976562 12.789062 -7.332031 11.78125 -6.90625 L 15.546875 0 L 11.40625 0 L 8.046875 -6.296875 L 5.296875 -6.296875 L 5.296875 0 Z M 5.296875 -9.3125 L 7.84375 -9.3125 C 9.976562 -9.3125 11.046875 -10.191406 11.046875 -11.953125 C 11.046875 -13.773438 9.972656 -14.6875 7.828125 -14.6875 L 5.296875 -14.6875 Z M 5.296875 -9.3125 "/></g></g></g><g fill="rgb(21.958923%, 71.369934%, 100%)" fill-opacity="1"><g transform="translate(174.628153, 237.105277)"><g><path d="M 16.40625 -17.765625 L 16.40625 0 L 13.15625 0 L 5.421875 -11.171875 L 5.296875 -11.171875 L 5.296875 0 L 1.546875 0 L 1.546875 -17.765625 L 4.84375 -17.765625 L 12.5 -6.59375 L 12.65625 -6.59375 L 12.65625 -17.765625 Z M 16.40625 -17.765625 "/></g></g></g><g fill="rgb(21.958923%, 71.369934%, 100%)" fill-opacity="1"><g transform="translate(194.363877, 237.105277)"><g><path d="M 1.359375 0 L 1.359375 -2.234375 L 10.21875 -14.671875 L 1.328125 -14.671875 L 1.328125 -17.765625 L 14.9375 -17.765625 L 14.9375 -15.53125 L 6.0625 -3.09375 L 14.953125 -3.09375 L 14.953125 0 Z M 1.359375 0 "/></g></g></g><g fill="rgb(21.958923%, 71.369934%, 100%)" fill-opacity="1"><g transform="translate(212.434492, 237.105277)"><g><path d="M 5.296875 -17.765625 L 5.296875 0 L 1.546875 0 L 1.546875 -17.765625 Z M 5.296875 -17.765625 "/></g></g></g><g fill="rgb(21.958923%, 71.369934%, 100%)" fill-opacity="1"><g transform="translate(221.069448, 237.105277)"><g><path d="M 1.546875 0 L 1.546875 -17.765625 L 5.296875 -17.765625 L 5.296875 -3.09375 L 12.90625 -3.09375 L 12.90625 0 Z M 1.546875 0 "/></g></g></g><g fill="rgb(21.958923%, 71.369934%, 100%)" fill-opacity="1"><g transform="translate(236.711758, 237.105277)"><g><path d="M 1.546875 0 L 1.546875 -17.765625 L 5.296875 -17.765625 L 5.296875 -3.09375 L 12.90625 -3.09375 L 12.90625 0 Z M 1.546875 0 "/></g></g></g><g fill="rgb(21.958923%, 71.369934%, 100%)" fill-opacity="1"><g transform="translate(252.354068, 237.105277)"><g><path d="M 4.609375 0 L 0.578125 0 L 6.71875 -17.765625 L 11.546875 -17.765625 L 17.671875 0 L 13.65625 0 L 12.328125 -4.046875 L 5.921875 -4.046875 Z M 6.875 -6.984375 L 11.390625 -6.984375 L 9.203125 -13.703125 L 9.0625 -13.703125 Z M 6.875 -6.984375 "/></g></g></g><g fill="rgb(0%, 0%, 0%)" fill-opacity="1"><g transform="translate(82.433979, 253.243752)"><g><path d="M 1.734375 0 L 0.21875 0 L 2.53125 -6.6875 L 4.34375 -6.6875 L 6.65625 0 L 5.140625 0 L 4.640625 -1.53125 L 2.234375 -1.53125 Z M 2.59375 -2.625 L 4.28125 -2.625 L 3.46875 -5.15625 L 3.40625 -5.15625 Z M 2.59375 -2.625 "/></g></g></g><g fill="rgb(0%, 0%, 0%)" fill-opacity="1"><g transform="translate(91.46315, 253.243752)"><g><path d="M 6.171875 -6.6875 L 6.171875 0 L 4.953125 0 L 2.046875 -4.203125 L 2 -4.203125 L 2 0 L 0.578125 0 L 0.578125 -6.6875 L 1.828125 -6.6875 L 4.703125 -2.484375 L 4.765625 -2.484375 L 4.765625 -6.6875 Z M 6.171875 -6.6875 "/></g></g></g><g fill="rgb(0%, 0%, 0%)" fill-opacity="1"><g transform="translate(100.375007, 253.243752)"><g/></g></g><g fill="rgb(0%, 0%, 0%)" fill-opacity="1"><g transform="translate(104.669539, 253.243752)"><g><path d="M 6.71875 -3.34375 C 6.71875 -2.613281 6.578125 -1.992188 6.296875 -1.484375 C 6.023438 -0.972656 5.65625 -0.582031 5.1875 -0.3125 C 4.71875 -0.0390625 4.1875 0.09375 3.59375 0.09375 C 3 0.09375 2.460938 -0.0390625 1.984375 -0.3125 C 1.515625 -0.582031 1.144531 -0.972656 0.875 -1.484375 C 0.601562 -1.992188 0.46875 -2.613281 0.46875 -3.34375 C 0.46875 -4.070312 0.601562 -4.691406 0.875 -5.203125 C 1.144531 -5.710938 1.515625 -6.097656 1.984375 -6.359375 C 2.460938 -6.628906 3 -6.765625 3.59375 -6.765625 C 4.1875 -6.765625 4.71875 -6.628906 5.1875 -6.359375 C 5.65625 -6.097656 6.023438 -5.710938 6.296875 -5.203125 C 6.578125 -4.691406 6.71875 -4.070312 6.71875 -3.34375 Z M 5.28125 -3.34375 C 5.28125 -4.050781 5.125 -4.59375 4.8125 -4.96875 C 4.507812 -5.34375 4.101562 -5.53125 3.59375 -5.53125 C 3.082031 -5.53125 2.671875 -5.34375 2.359375 -4.96875 C 2.046875 -4.59375 1.890625 -4.050781 1.890625 -3.34375 C 1.890625 -2.632812 2.046875 -2.09375 2.359375 -1.71875 C 2.671875 -1.34375 3.082031 -1.15625 3.59375 -1.15625 C 4.101562 -1.15625 4.507812 -1.34375 4.8125 -1.71875 C 5.125 -2.09375 5.28125 -2.632812 5.28125 -3.34375 Z M 5.28125 -3.34375 "/></g></g></g><g fill="rgb(0%, 0%, 0%)" fill-opacity="1"><g transform="translate(114.011523, 253.243752)"><g><path d="M 6.171875 -6.6875 L 6.171875 0 L 4.953125 0 L 2.046875 -4.203125 L 2 -4.203125 L 2 0 L 0.578125 0 L 0.578125 -6.6875 L 1.828125 -6.6875 L 4.703125 -2.484375 L 4.765625 -2.484375 L 4.765625 -6.6875 Z M 6.171875 -6.6875 "/></g></g></g><g fill="rgb(0%, 0%, 0%)" fill-opacity="1"><g transform="translate(122.92338, 253.243752)"><g><path d="M 0.578125 0 L 0.578125 -6.6875 L 2 -6.6875 L 2 -1.171875 L 4.859375 -1.171875 L 4.859375 0 Z M 0.578125 0 "/></g></g></g><g fill="rgb(0%, 0%, 0%)" fill-opacity="1"><g transform="translate(130.297219, 253.243752)"><g><path d="M 2 -6.6875 L 2 0 L 0.578125 0 L 0.578125 -6.6875 Z M 2 -6.6875 "/></g></g></g><g fill="rgb(0%, 0%, 0%)" fill-opacity="1"><g transform="translate(135.038163, 253.243752)"><g><path d="M 6.171875 -6.6875 L 6.171875 0 L 4.953125 0 L 2.046875 -4.203125 L 2 -4.203125 L 2 0 L 0.578125 0 L 0.578125 -6.6875 L 1.828125 -6.6875 L 4.703125 -2.484375 L 4.765625 -2.484375 L 4.765625 -6.6875 Z M 6.171875 -6.6875 "/></g></g></g><g fill="rgb(0%, 0%, 0%)" fill-opacity="1"><g transform="translate(143.95002, 253.243752)"><g><path d="M 0.578125 0 L 0.578125 -6.6875 L 5.078125 -6.6875 L 5.078125 -5.515625 L 2 -5.515625 L 2 -3.921875 L 4.84375 -3.921875 L 4.84375 -2.765625 L 2 -2.765625 L 2 -1.171875 L 5.09375 -1.171875 L 5.09375 0 Z M 0.578125 0 "/></g></g></g><g fill="rgb(0%, 0%, 0%)" fill-opacity="1"><g transform="translate(151.73769, 253.243752)"><g/></g></g><g fill="rgb(0%, 0%, 0%)" fill-opacity="1"><g transform="translate(156.032222, 253.243752)"><g><path d="M 0.578125 0 L 0.578125 -6.6875 L 2 -6.6875 L 2 -1.171875 L 4.859375 -1.171875 L 4.859375 0 Z M 0.578125 0 "/></g></g></g><g fill="rgb(0%, 0%, 0%)" fill-opacity="1"><g transform="translate(163.406062, 253.243752)"><g><path d="M 0.578125 0 L 0.578125 -6.6875 L 5.078125 -6.6875 L 5.078125 -5.515625 L 2 -5.515625 L 2 -3.921875 L 4.84375 -3.921875 L 4.84375 -2.765625 L 2 -2.765625 L 2 -1.171875 L 5.09375 -1.171875 L 5.09375 0 Z M 0.578125 0 "/></g></g></g><g fill="rgb(0%, 0%, 0%)" fill-opacity="1"><g transform="translate(171.193732, 253.243752)"><g><path d="M 1.734375 0 L 0.21875 0 L 2.53125 -6.6875 L 4.34375 -6.6875 L 6.65625 0 L 5.140625 0 L 4.640625 -1.53125 L 2.234375 -1.53125 Z M 2.59375 -2.625 L 4.28125 -2.625 L 3.46875 -5.15625 L 3.40625 -5.15625 Z M 2.59375 -2.625 "/></g></g></g><g fill="rgb(0%, 0%, 0%)" fill-opacity="1"><g transform="translate(180.222902, 253.243752)"><g><path d="M 0.578125 0 L 0.578125 -6.6875 L 3.21875 -6.6875 C 3.976562 -6.6875 4.566406 -6.488281 4.984375 -6.09375 C 5.398438 -5.695312 5.609375 -5.164062 5.609375 -4.5 C 5.609375 -4.039062 5.503906 -3.648438 5.296875 -3.328125 C 5.097656 -3.003906 4.8125 -2.757812 4.4375 -2.59375 L 5.84375 0 L 4.296875 0 L 3.03125 -2.375 L 2 -2.375 L 2 0 Z M 2 -3.5 L 2.953125 -3.5 C 3.753906 -3.5 4.15625 -3.832031 4.15625 -4.5 C 4.15625 -5.1875 3.753906 -5.53125 2.953125 -5.53125 L 2 -5.53125 Z M 2 -3.5 "/></g></g></g><g fill="rgb(0%, 0%, 0%)" fill-opacity="1"><g transform="translate(188.411367, 253.243752)"><g><path d="M 6.171875 -6.6875 L 6.171875 0 L 4.953125 0 L 2.046875 -4.203125 L 2 -4.203125 L 2 0 L 0.578125 0 L 0.578125 -6.6875 L 1.828125 -6.6875 L 4.703125 -2.484375 L 4.765625 -2.484375 L 4.765625 -6.6875 Z M 6.171875 -6.6875 "/></g></g></g><g fill="rgb(0%, 0%, 0%)" fill-opacity="1"><g transform="translate(197.323224, 253.243752)"><g><path d="M 2 -6.6875 L 2 0 L 0.578125 0 L 0.578125 -6.6875 Z M 2 -6.6875 "/></g></g></g><g fill="rgb(0%, 0%, 0%)" fill-opacity="1"><g transform="translate(202.064167, 253.243752)"><g><path d="M 6.171875 -6.6875 L 6.171875 0 L 4.953125 0 L 2.046875 -4.203125 L 2 -4.203125 L 2 0 L 0.578125 0 L 0.578125 -6.6875 L 1.828125 -6.6875 L 4.703125 -2.484375 L 4.765625 -2.484375 L 4.765625 -6.6875 Z M 6.171875 -6.6875 "/></g></g></g><g fill="rgb(0%, 0%, 0%)" fill-opacity="1"><g transform="translate(210.976024, 253.243752)"><g><path d="M 5.015625 -4.515625 C 4.921875 -4.828125 4.753906 -5.070312 4.515625 -5.25 C 4.273438 -5.4375 3.972656 -5.53125 3.609375 -5.53125 C 3.097656 -5.53125 2.679688 -5.335938 2.359375 -4.953125 C 2.046875 -4.578125 1.890625 -4.039062 1.890625 -3.34375 C 1.890625 -2.644531 2.046875 -2.101562 2.359375 -1.71875 C 2.671875 -1.34375 3.09375 -1.15625 3.625 -1.15625 C 4.09375 -1.15625 4.460938 -1.273438 4.734375 -1.515625 C 5.003906 -1.765625 5.140625 -2.097656 5.140625 -2.515625 L 3.71875 -2.515625 L 3.71875 -3.578125 L 6.515625 -3.578125 L 6.515625 -2.734375 C 6.515625 -2.148438 6.390625 -1.644531 6.140625 -1.21875 C 5.890625 -0.800781 5.546875 -0.476562 5.109375 -0.25 C 4.679688 -0.0195312 4.1875 0.09375 3.625 0.09375 C 2.988281 0.09375 2.429688 -0.0390625 1.953125 -0.3125 C 1.484375 -0.59375 1.117188 -0.988281 0.859375 -1.5 C 0.597656 -2.019531 0.46875 -2.628906 0.46875 -3.328125 C 0.46875 -4.054688 0.601562 -4.675781 0.875 -5.1875 C 1.15625 -5.695312 1.53125 -6.085938 2 -6.359375 C 2.46875 -6.628906 3 -6.765625 3.59375 -6.765625 C 4.09375 -6.765625 4.546875 -6.671875 4.953125 -6.484375 C 5.367188 -6.296875 5.707031 -6.03125 5.96875 -5.6875 C 6.226562 -5.351562 6.390625 -4.960938 6.453125 -4.515625 Z M 5.015625 -4.515625 "/></g></g></g><g fill="rgb(0%, 0%, 0%)" fill-opacity="1"><g transform="translate(220.122497, 253.243752)"><g/></g></g><g fill="rgb(0%, 0%, 0%)" fill-opacity="1"><g transform="translate(224.417029, 253.243752)"><g><path d="M 2 -6.6875 L 2 0 L 0.578125 0 L 0.578125 -6.6875 Z M 2 -6.6875 "/></g></g></g><g fill="rgb(0%, 0%, 0%)" fill-opacity="1"><g transform="translate(229.157973, 253.243752)"><g><path d="M 6.171875 -6.6875 L 6.171875 0 L 4.953125 0 L 2.046875 -4.203125 L 2 -4.203125 L 2 0 L 0.578125 0 L 0.578125 -6.6875 L 1.828125 -6.6875 L 4.703125 -2.484375 L 4.765625 -2.484375 L 4.765625 -6.6875 Z M 6.171875 -6.6875 "/></g></g></g><g fill="rgb(0%, 0%, 0%)" fill-opacity="1"><g transform="translate(238.06983, 253.243752)"><g><path d="M 2 -6.6875 L 2 0 L 0.578125 0 L 0.578125 -6.6875 Z M 2 -6.6875 "/></g></g></g><g fill="rgb(0%, 0%, 0%)" fill-opacity="1"><g transform="translate(242.810773, 253.243752)"><g><path d="M 0.328125 -5.515625 L 0.328125 -6.6875 L 5.8125 -6.6875 L 5.8125 -5.515625 L 3.765625 -5.515625 L 3.765625 0 L 2.375 0 L 2.375 -5.515625 Z M 0.328125 -5.515625 "/></g></g></g><g fill="rgb(0%, 0%, 0%)" fill-opacity="1"><g transform="translate(251.110028, 253.243752)"><g><path d="M 2 -6.6875 L 2 0 L 0.578125 0 L 0.578125 -6.6875 Z M 2 -6.6875 "/></g></g></g><g fill="rgb(0%, 0%, 0%)" fill-opacity="1"><g transform="translate(255.850972, 253.243752)"><g><path d="M 1.734375 0 L 0.21875 0 L 2.53125 -6.6875 L 4.34375 -6.6875 L 6.65625 0 L 5.140625 0 L 4.640625 -1.53125 L 2.234375 -1.53125 Z M 2.59375 -2.625 L 4.28125 -2.625 L 3.46875 -5.15625 L 3.40625 -5.15625 Z M 2.59375 -2.625 "/></g></g></g><g fill="rgb(0%, 0%, 0%)" fill-opacity="1"><g transform="translate(264.880142, 253.243752)"><g><path d="M 0.328125 -5.515625 L 0.328125 -6.6875 L 5.8125 -6.6875 L 5.8125 -5.515625 L 3.765625 -5.515625 L 3.765625 0 L 2.375 0 L 2.375 -5.515625 Z M 0.328125 -5.515625 "/></g></g></g><g fill="rgb(0%, 0%, 0%)" fill-opacity="1"><g transform="translate(273.179397, 253.243752)"><g><path d="M 2 -6.6875 L 2 0 L 0.578125 0 L 0.578125 -6.6875 Z M 2 -6.6875 "/></g></g></g><g fill="rgb(0%, 0%, 0%)" fill-opacity="1"><g transform="translate(277.92034, 253.243752)"><g><path d="M 1.78125 -6.6875 L 3.40625 -1.609375 L 3.46875 -1.609375 L 5.078125 -6.6875 L 6.65625 -6.6875 L 4.34375 0 L 2.53125 0 L 0.21875 -6.6875 Z M 1.78125 -6.6875 "/></g></g></g><g fill="rgb(0%, 0%, 0%)" fill-opacity="1"><g transform="translate(286.949499, 253.243752)"><g><path d="M 0.578125 0 L 0.578125 -6.6875 L 5.078125 -6.6875 L 5.078125 -5.515625 L 2 -5.515625 L 2 -3.921875 L 4.84375 -3.921875 L 4.84375 -2.765625 L 2 -2.765625 L 2 -1.171875 L 5.09375 -1.171875 L 5.09375 0 Z M 0.578125 0 "/></g></g></g></svg>