<svg xmlns="http://www.w3.org/2000/svg" xmlns:xlink="http://www.w3.org/1999/xlink" width="500" zoomAndPan="magnify" viewBox="0 0 375 374.999991" height="500" preserveAspectRatio="xMidYMid meet" version="1.0"><defs><g/><clipPath id="id1"><path d="M 58 139 L 215 139 L 215 227.351562 L 58 227.351562 Z M 58 139 " clip-rule="nonzero"/></clipPath><clipPath id="id2"><path d="M 66 117.101562 L 211 117.101562 L 211 210 L 66 210 Z M 66 117.101562 " clip-rule="nonzero"/></clipPath><clipPath id="id3"><path d="M 114 117.101562 L 151 117.101562 L 151 201 L 114 201 Z M 114 117.101562 " clip-rule="nonzero"/></clipPath></defs><rect x="-37.5" width="450" fill="rgb(100%, 100%, 100%)" y="-37.499999" height="449.999989" fill-opacity="1"/><rect x="-37.5" width="450" fill="rgb(100%, 100%, 100%)" y="-37.499999" height="449.999989" fill-opacity="1"/><rect x="-37.5" width="450" fill="rgb(100%, 100%, 100%)" y="-37.499999" height="449.999989" fill-opacity="1"/><rect x="-37.5" width="450" fill="rgb(100%, 100%, 100%)" y="-37.499999" height="449.999989" fill-opacity="1"/><g clip-path="url(#id1)"><path fill="rgb(8.628845%, 81.959534%, 86.669922%)" d="M 59.269531 186.507812 C 72.804688 189.835938 86.09375 194.160156 99.003906 199.429688 C 98.953125 204.960938 103.160156 210.046875 108.410156 211.738281 C 113.660156 213.433594 119.617188 212.03125 124.089844 208.792969 C 140.21875 215.640625 156.683594 221.699219 173.394531 226.949219 C 174.789062 227.386719 176.304688 226.949219 177.253906 225.84375 C 188.800781 212.417969 202.488281 196.210938 214.078125 182.726562 C 215.039062 181.613281 214.625 179.882812 213.265625 179.320312 C 176.875 164.285156 139.617188 151.890625 102.875 139.84375 C 102.226562 139.628906 101.550781 139.414062 100.882812 139.53125 C 99.988281 139.675781 99.296875 140.367188 98.671875 141.019531 C 87.886719 152.210938 83.859375 157.9375 73.082031 169.128906 L 58.65625 184.417969 C 57.988281 185.125 58.332031 186.28125 59.269531 186.507812 Z M 59.269531 186.507812 " fill-opacity="1" fill-rule="nonzero"/></g><path stroke-linecap="round" transform="matrix(0.689212, 0, 0, 0.691656, -10.072323, 25.248953)" fill-opacity="1" fill="rgb(100%, 100%, 100%)" fill-rule="nonzero" stroke-linejoin="round" d="M 185.240638 263.211447 C 178.127663 267.62793 169.920821 264.019065 166.627883 256.857812 C 164.967244 253.260242 164.338128 247.759406 160.931835 245.720595 C 156.36933 242.992768 150.010161 241.671211 144.999906 239.858307 C 139.558906 237.887269 134.730018 236.848096 129.26068 234.961773 C 127.622712 234.391357 118.59972 231.437623 111.707786 228.658966 C 128.030787 210.56946 145.351304 192.502545 161.679973 174.401744 C 162.581139 173.402106 163.589991 172.340342 164.92757 172.170912 C 164.78021 172.317752 165.562353 171.510134 165.409325 171.662621 C 196.020619 182.647351 269.11139 205.040386 315.648945 223.9601 C 300.997919 241.801108 288.290916 255.519313 266.458902 282.018208 C 265.892131 282.71852 250.759349 276.122034 248.991024 275.472552 C 243.748394 273.541046 238.500096 271.649075 233.229127 269.807933 C 227.187349 267.712645 221.128569 265.679482 215.058453 263.702795 C 208.721955 261.630098 201.161231 258.15113 194.33731 259.020872 C 191.0217 259.4388 188.131169 261.409839 185.240638 263.211447 Z M 185.240638 263.211447 " stroke="rgb(21.179199%, 37.249756%, 62.748718%)" stroke-width="1" stroke-opacity="1" stroke-miterlimit="10"/><g clip-path="url(#id2)"><path fill="rgb(100%, 100%, 100%)" d="M 179.777344 209.589844 C 176.902344 209.238281 172.445312 208.359375 169.445312 206.980469 C 167.136719 205.921875 164.554688 204.207031 162.265625 203.109375 C 160.164062 202.097656 156.253906 201.609375 153.933594 201.765625 C 144.828125 202.410156 137.183594 203.695312 128.082031 204.339844 L 125.273438 203.585938 L 126.226562 203.871094 L 122.980469 202.90625 L 114.972656 200.007812 C 114.242188 198.929688 112.367188 197.476562 111.792969 197.089844 C 97.597656 187.601562 82.488281 179.800781 66.925781 172.785156 C 71.425781 168.207031 75.230469 164.230469 79.699219 159.679688 C 78.238281 158.511719 76.742188 157.339844 75.203125 156.164062 C 78.882812 152.113281 83.640625 147.152344 87.320312 143.101562 C 87.417969 143.148438 85.652344 142.214844 84.382812 141.542969 C 94.039062 135.203125 113.539062 127.117188 122.433594 121.332031 C 123.855469 124.992188 125.164062 129.101562 125.164062 133.148438 C 129.707031 129.621094 138.875 121.089844 142.574219 117.480469 C 144.601562 127.664062 150.203125 148.621094 150.6875 155.839844 C 157.386719 149.816406 163.707031 145.292969 170.445312 145.210938 C 174.375 145.167969 183.042969 145.757812 187.613281 146.316406 C 182.75 151.359375 177.75 155.742188 172.484375 159.976562 C 177.28125 157.742188 182.453125 156.019531 187.546875 154.71875 C 192.375 153.488281 193.4375 152.726562 201.839844 156.152344 C 197.234375 158.46875 192.625 160.792969 188.019531 163.109375 C 192.292969 163.960938 202.867188 165.933594 207.449219 167.175781 C 206.464844 168.164062 205.480469 169.160156 204.492188 170.152344 C 206.648438 170.765625 208.8125 171.390625 210.972656 172.003906 C 200.390625 185.0625 191.535156 197.609375 179.777344 209.589844 " fill-opacity="1" fill-rule="nonzero"/></g><path stroke-linecap="round" transform="matrix(0.689212, 0, 0, 0.691656, -10.072323, 25.248953)" fill="none" stroke-linejoin="round" d="M 181.182558 252.667236 C 180.1397 250.730084 178.649093 249.679616 176.818423 248.448422 C 156.22197 234.730218 134.299273 223.451809 111.719121 213.308583 C 118.40135 206.531372 123.5703 201.171728 130.252529 194.388869 " stroke="rgb(21.179199%, 37.249756%, 62.748718%)" stroke-width="1" stroke-opacity="1" stroke-miterlimit="10"/><path stroke-linecap="round" transform="matrix(0.689212, 0, 0, 0.691656, -10.072323, 25.248953)" fill="none" stroke-linejoin="round" d="M 182.412451 252.209775 C 181.902357 246.51127 175.86058 239.581571 172.19924 235.182032 C 157.089129 217.019106 142.500447 203.622819 123.717661 189.277722 C 129.06231 183.421083 134.412627 177.5475 139.751608 171.69086 " stroke="rgb(21.179199%, 37.249756%, 62.748718%)" stroke-width="1" stroke-opacity="1" stroke-miterlimit="10"/><path stroke-linecap="round" transform="matrix(0.689212, 0, 0, 0.691656, -10.072323, 25.248953)" fill="none" stroke-linejoin="round" d="M 183.47798 253.198118 C 185.348324 219.357244 165.789062 186.081138 137.042444 168.127176 C 151.047352 158.960998 179.340553 147.270309 192.251593 138.911749 C 194.308971 144.197974 196.207654 147.840725 196.207654 153.691717 " stroke="rgb(21.179199%, 37.249756%, 62.748718%)" stroke-width="1" stroke-opacity="1" stroke-miterlimit="10"/><g clip-path="url(#id3)"><path stroke-linecap="round" transform="matrix(0.689212, 0, 0, 0.691656, -10.072323, 25.248953)" fill="none" stroke-linejoin="round" d="M 183.869052 253.220709 C 185.127284 245.251838 185.331321 238.118823 185.30865 230.048295 C 185.240638 209.140598 181.471611 188.588706 181.397931 167.68101 C 191.622478 159.0796 211.901539 142.661806 221.457296 133.331845 C 224.778573 146.632122 232.350632 175.881435 232.322293 187.837565 " stroke="rgb(21.179199%, 37.249756%, 62.748718%)" stroke-width="1" stroke-opacity="1" stroke-miterlimit="10"/></g><path stroke-linecap="round" transform="matrix(0.689212, 0, 0, 0.691656, -10.072323, 25.248953)" fill="none" stroke-linejoin="round" d="M 183.47798 253.198118 C 241.509649 161.609758 259.221238 173.921692 268.890349 173.7805 C 275.090822 173.690137 282.181126 174.989102 286.811644 175.039932 C 271.661859 190.700937 255.639246 201.979345 236.669426 215.991229 C 219.399918 228.732386 206.500213 240.157634 193.039405 256.869107 " stroke="rgb(21.179199%, 37.249756%, 62.748718%)" stroke-width="1" stroke-opacity="1" stroke-miterlimit="10"/><path stroke-linecap="round" transform="matrix(0.689212, 0, 0, 0.691656, -10.072323, 25.248953)" fill="none" stroke-linejoin="round" d="M 263.228308 196.077524 C 270.919389 192.197571 278.349755 189.300313 286.709625 187.182435 C 293.720581 185.397769 295.262197 184.30212 307.447771 189.249484 C 298.787512 193.592547 290.138589 197.929962 281.47833 202.278672 C 270.431966 207.819042 259.368599 213.370708 248.718974 219.650923 C 231.681842 229.692491 209.912173 244.850853 195.431178 258.309265 " stroke="rgb(21.179199%, 37.249756%, 62.748718%)" stroke-width="1" stroke-opacity="1" stroke-miterlimit="10"/><path stroke-linecap="round" transform="matrix(0.689212, 0, 0, 0.691656, -10.072323, 25.248953)" fill="none" stroke-linejoin="round" d="M 288.160559 199.500016 C 297.438598 200.629551 306.631621 202.538465 315.592268 205.198521 C 303.911121 216.9118 292.229973 228.619433 280.548826 240.332712 C 279.868701 241.010433 279.137566 241.722041 278.202395 241.908414 C 277.148201 242.117378 276.11101 241.631678 275.141832 241.202454 C 261.941738 235.492654 246.791953 240.050328 233.161114 244.647537 C 225.090297 247.369716 219.252557 249.340755 211.18174 252.068583 C 205.780414 253.892782 200.237395 255.971127 196.377685 257.840507 " stroke="rgb(21.179199%, 37.249756%, 62.748718%)" stroke-width="1" stroke-opacity="1" stroke-miterlimit="10"/><path stroke-linecap="round" transform="matrix(0.689212, 0, 0, 0.691656, -10.072323, 25.248953)" fill="none" stroke-linejoin="round" d="M 311.290477 209.50205 C 314.430388 210.40003 317.558963 211.292363 320.698874 212.190343 C 305.379057 231.059228 292.519027 249.199563 275.459224 266.520985 C 268.181886 263.849635 262.33281 259.099939 257.271547 255.219986 C 250.521306 250.052362 241.0619 251.170602 232.668023 252.53734 C 221.032218 254.440607 209.390744 256.349521 197.749271 258.252788 " stroke="rgb(21.179199%, 37.249756%, 62.748718%)" stroke-width="1" stroke-opacity="1" stroke-miterlimit="10"/><path stroke-linecap="round" transform="matrix(0.689212, 0, 0, 0.691656, -10.072323, 25.248953)" fill="none" stroke-linejoin="round" d="M 198.41806 258.919214 C 211.629489 257.987347 224.738899 256.140557 237.950328 255.208691 C 241.322615 254.971488 246.990323 255.688743 250.03955 257.151491 C 253.372163 258.738488 257.107183 261.21217 260.462467 262.748338 C 265.659755 265.131657 270.358286 266.142591 275.447888 266.520985 " stroke="rgb(21.179199%, 37.249756%, 62.748718%)" stroke-width="1" stroke-opacity="1" stroke-miterlimit="10"/><path stroke-linecap="round" transform="matrix(0.689212, 0, 0, 0.691656, -10.072323, 25.248953)" fill="none" stroke-linejoin="round" d="M 162.048374 246.51127 C 171.388758 248.787283 184.628525 253.661227 195.442513 258.919214 " stroke="rgb(21.179199%, 37.249756%, 62.748718%)" stroke-width="1" stroke-opacity="1" stroke-miterlimit="10"/><path stroke-linecap="round" transform="matrix(0.689212, 0, 0, 0.691656, -10.072323, 25.248953)" fill="none" stroke-linejoin="round" d="M 117.420836 227.467307 C 119.778603 224.942796 122.142038 222.412637 124.51114 219.882478 " stroke="rgb(21.179199%, 37.249756%, 62.748718%)" stroke-width="1" stroke-opacity="1" stroke-miterlimit="10"/><path stroke-linecap="round" transform="matrix(0.689212, 0, 0, 0.691656, -10.072323, 25.248953)" fill="none" stroke-linejoin="round" d="M 115.890555 215.21185 C 120.957486 209.507697 127.70206 202.747429 133.95921 197.997734 " stroke="rgb(21.179199%, 37.249756%, 62.748718%)" stroke-width="1" stroke-opacity="1" stroke-miterlimit="10"/><path stroke-linecap="round" transform="matrix(0.689212, 0, 0, 0.691656, -10.072323, 25.248953)" fill="none" stroke-linejoin="round" d="M 165.908084 249.052724 C 166.151795 252.520397 168.78728 256.919936 171.230062 259.399266 C 173.667177 261.878596 175.877583 262.432068 179.351888 262.731395 " stroke="rgb(21.179199%, 37.249756%, 62.748718%)" stroke-width="1" stroke-opacity="1" stroke-miterlimit="10"/><g fill="rgb(0%, 0%, 0%)" fill-opacity="1"><g transform="translate(147.029349, 174.829148)"><g><path d="M 1.546875 0 L 1.546875 -17.765625 L 5.296875 -17.765625 L 5.296875 -3.09375 L 12.90625 -3.09375 L 12.90625 0 Z M 1.546875 0 "/></g></g></g><g fill="rgb(0%, 0%, 0%)" fill-opacity="1"><g transform="translate(162.671661, 174.829148)"><g><path d="M 1.546875 0 L 1.546875 -17.765625 L 13.515625 -17.765625 L 13.515625 -14.671875 L 5.296875 -14.671875 L 5.296875 -10.4375 L 12.890625 -10.4375 L 12.890625 -7.34375 L 5.296875 -7.34375 L 5.296875 -3.09375 L 13.546875 -3.09375 L 13.546875 0 Z M 1.546875 0 "/></g></g></g><g fill="rgb(0%, 0%, 0%)" fill-opacity="1"><g transform="translate(179.415386, 174.829148)"><g><path d="M 4.609375 0 L 0.578125 0 L 6.71875 -17.765625 L 11.546875 -17.765625 L 17.671875 0 L 13.65625 0 L 12.328125 -4.046875 L 5.921875 -4.046875 Z M 6.875 -6.984375 L 11.390625 -6.984375 L 9.203125 -13.703125 L 9.0625 -13.703125 Z M 6.875 -6.984375 "/></g></g></g><g fill="rgb(0%, 0%, 0%)" fill-opacity="1"><g transform="translate(199.463319, 174.829148)"><g><path d="M 1.546875 0 L 1.546875 -17.765625 L 8.546875 -17.765625 C 10.566406 -17.765625 12.132812 -17.238281 13.25 -16.1875 C 14.363281 -15.132812 14.921875 -13.722656 14.921875 -11.953125 C 14.921875 -10.742188 14.648438 -9.707031 14.109375 -8.84375 C 13.566406 -7.976562 12.789062 -7.332031 11.78125 -6.90625 L 15.546875 0 L 11.40625 0 L 8.046875 -6.296875 L 5.296875 -6.296875 L 5.296875 0 Z M 5.296875 -9.3125 L 7.84375 -9.3125 C 9.976562 -9.3125 11.046875 -10.191406 11.046875 -11.953125 C 11.046875 -13.773438 9.972656 -14.6875 7.828125 -14.6875 L 5.296875 -14.6875 Z M 5.296875 -9.3125 "/></g></g></g><g fill="rgb(0%, 0%, 0%)" fill-opacity="1"><g transform="translate(217.273757, 174.829148)"><g><path d="M 16.40625 -17.765625 L 16.40625 0 L 13.15625 0 L 5.421875 -11.171875 L 5.296875 -11.171875 L 5.296875 0 L 1.546875 0 L 1.546875 -17.765625 L 4.84375 -17.765625 L 12.5 -6.59375 L 12.65625 -6.59375 L 12.65625 -17.765625 Z M 16.40625 -17.765625 "/></g></g></g><g fill="rgb(0%, 0%, 0%)" fill-opacity="1"><g transform="translate(237.009482, 174.829148)"><g><path d="M 1.359375 0 L 1.359375 -2.234375 L 10.21875 -14.671875 L 1.328125 -14.671875 L 1.328125 -17.765625 L 14.9375 -17.765625 L 14.9375 -15.53125 L 6.0625 -3.09375 L 14.953125 -3.09375 L 14.953125 0 Z M 1.359375 0 "/></g></g></g><g fill="rgb(0%, 0%, 0%)" fill-opacity="1"><g transform="translate(255.080096, 174.829148)"><g><path d="M 5.296875 -17.765625 L 5.296875 0 L 1.546875 0 L 1.546875 -17.765625 Z M 5.296875 -17.765625 "/></g></g></g><g fill="rgb(0%, 0%, 0%)" fill-opacity="1"><g transform="translate(263.715052, 174.829148)"><g><path d="M 1.546875 0 L 1.546875 -17.765625 L 5.296875 -17.765625 L 5.296875 -3.09375 L 12.90625 -3.09375 L 12.90625 0 Z M 1.546875 0 "/></g></g></g><g fill="rgb(0%, 0%, 0%)" fill-opacity="1"><g transform="translate(279.357362, 174.829148)"><g><path d="M 1.546875 0 L 1.546875 -17.765625 L 5.296875 -17.765625 L 5.296875 -3.09375 L 12.90625 -3.09375 L 12.90625 0 Z M 1.546875 0 "/></g></g></g><g fill="rgb(0%, 0%, 0%)" fill-opacity="1"><g transform="translate(294.999672, 174.829148)"><g><path d="M 4.609375 0 L 0.578125 0 L 6.71875 -17.765625 L 11.546875 -17.765625 L 17.671875 0 L 13.65625 0 L 12.328125 -4.046875 L 5.921875 -4.046875 Z M 6.875 -6.984375 L 11.390625 -6.984375 L 9.203125 -13.703125 L 9.0625 -13.703125 Z M 6.875 -6.984375 "/></g></g></g><g fill="rgb(0%, 0%, 0%)" fill-opacity="1"><g transform="translate(121.397883, 190.877918)"><g><path d="M 1.734375 0 L 0.21875 0 L 2.53125 -6.6875 L 4.34375 -6.6875 L 6.65625 0 L 5.140625 0 L 4.640625 -1.53125 L 2.234375 -1.53125 Z M 2.59375 -2.625 L 4.28125 -2.625 L 3.46875 -5.15625 L 3.40625 -5.15625 Z M 2.59375 -2.625 "/></g></g></g><g fill="rgb(0%, 0%, 0%)" fill-opacity="1"><g transform="translate(130.427054, 190.877918)"><g><path d="M 6.171875 -6.6875 L 6.171875 0 L 4.953125 0 L 2.046875 -4.203125 L 2 -4.203125 L 2 0 L 0.578125 0 L 0.578125 -6.6875 L 1.828125 -6.6875 L 4.703125 -2.484375 L 4.765625 -2.484375 L 4.765625 -6.6875 Z M 6.171875 -6.6875 "/></g></g></g><g fill="rgb(0%, 0%, 0%)" fill-opacity="1"><g transform="translate(139.338911, 190.877918)"><g/></g></g><g fill="rgb(0%, 0%, 0%)" fill-opacity="1"><g transform="translate(143.633443, 190.877918)"><g><path d="M 6.71875 -3.34375 C 6.71875 -2.613281 6.578125 -1.992188 6.296875 -1.484375 C 6.023438 -0.972656 5.65625 -0.582031 5.1875 -0.3125 C 4.71875 -0.0390625 4.1875 0.09375 3.59375 0.09375 C 3 0.09375 2.460938 -0.0390625 1.984375 -0.3125 C 1.515625 -0.582031 1.144531 -0.972656 0.875 -1.484375 C 0.601562 -1.992188 0.46875 -2.613281 0.46875 -3.34375 C 0.46875 -4.070312 0.601562 -4.691406 0.875 -5.203125 C 1.144531 -5.710938 1.515625 -6.097656 1.984375 -6.359375 C 2.460938 -6.628906 3 -6.765625 3.59375 -6.765625 C 4.1875 -6.765625 4.71875 -6.628906 5.1875 -6.359375 C 5.65625 -6.097656 6.023438 -5.710938 6.296875 -5.203125 C 6.578125 -4.691406 6.71875 -4.070312 6.71875 -3.34375 Z M 5.28125 -3.34375 C 5.28125 -4.050781 5.125 -4.59375 4.8125 -4.96875 C 4.507812 -5.34375 4.101562 -5.53125 3.59375 -5.53125 C 3.082031 -5.53125 2.671875 -5.34375 2.359375 -4.96875 C 2.046875 -4.59375 1.890625 -4.050781 1.890625 -3.34375 C 1.890625 -2.632812 2.046875 -2.09375 2.359375 -1.71875 C 2.671875 -1.34375 3.082031 -1.15625 3.59375 -1.15625 C 4.101562 -1.15625 4.507812 -1.34375 4.8125 -1.71875 C 5.125 -2.09375 5.28125 -2.632812 5.28125 -3.34375 Z M 5.28125 -3.34375 "/></g></g></g><g fill="rgb(0%, 0%, 0%)" fill-opacity="1"><g transform="translate(152.975426, 190.877918)"><g><path d="M 6.171875 -6.6875 L 6.171875 0 L 4.953125 0 L 2.046875 -4.203125 L 2 -4.203125 L 2 0 L 0.578125 0 L 0.578125 -6.6875 L 1.828125 -6.6875 L 4.703125 -2.484375 L 4.765625 -2.484375 L 4.765625 -6.6875 Z M 6.171875 -6.6875 "/></g></g></g><g fill="rgb(0%, 0%, 0%)" fill-opacity="1"><g transform="translate(161.887283, 190.877918)"><g><path d="M 0.578125 0 L 0.578125 -6.6875 L 2 -6.6875 L 2 -1.171875 L 4.859375 -1.171875 L 4.859375 0 Z M 0.578125 0 "/></g></g></g><g fill="rgb(0%, 0%, 0%)" fill-opacity="1"><g transform="translate(169.261123, 190.877918)"><g><path d="M 2 -6.6875 L 2 0 L 0.578125 0 L 0.578125 -6.6875 Z M 2 -6.6875 "/></g></g></g><g fill="rgb(0%, 0%, 0%)" fill-opacity="1"><g transform="translate(174.002067, 190.877918)"><g><path d="M 6.171875 -6.6875 L 6.171875 0 L 4.953125 0 L 2.046875 -4.203125 L 2 -4.203125 L 2 0 L 0.578125 0 L 0.578125 -6.6875 L 1.828125 -6.6875 L 4.703125 -2.484375 L 4.765625 -2.484375 L 4.765625 -6.6875 Z M 6.171875 -6.6875 "/></g></g></g><g fill="rgb(0%, 0%, 0%)" fill-opacity="1"><g transform="translate(182.913924, 190.877918)"><g><path d="M 0.578125 0 L 0.578125 -6.6875 L 5.078125 -6.6875 L 5.078125 -5.515625 L 2 -5.515625 L 2 -3.921875 L 4.84375 -3.921875 L 4.84375 -2.765625 L 2 -2.765625 L 2 -1.171875 L 5.09375 -1.171875 L 5.09375 0 Z M 0.578125 0 "/></g></g></g><g fill="rgb(0%, 0%, 0%)" fill-opacity="1"><g transform="translate(190.701593, 190.877918)"><g/></g></g><g fill="rgb(0%, 0%, 0%)" fill-opacity="1"><g transform="translate(194.996126, 190.877918)"><g><path d="M 0.578125 0 L 0.578125 -6.6875 L 2 -6.6875 L 2 -1.171875 L 4.859375 -1.171875 L 4.859375 0 Z M 0.578125 0 "/></g></g></g><g fill="rgb(0%, 0%, 0%)" fill-opacity="1"><g transform="translate(202.369966, 190.877918)"><g><path d="M 0.578125 0 L 0.578125 -6.6875 L 5.078125 -6.6875 L 5.078125 -5.515625 L 2 -5.515625 L 2 -3.921875 L 4.84375 -3.921875 L 4.84375 -2.765625 L 2 -2.765625 L 2 -1.171875 L 5.09375 -1.171875 L 5.09375 0 Z M 0.578125 0 "/></g></g></g><g fill="rgb(0%, 0%, 0%)" fill-opacity="1"><g transform="translate(210.157635, 190.877918)"><g><path d="M 1.734375 0 L 0.21875 0 L 2.53125 -6.6875 L 4.34375 -6.6875 L 6.65625 0 L 5.140625 0 L 4.640625 -1.53125 L 2.234375 -1.53125 Z M 2.59375 -2.625 L 4.28125 -2.625 L 3.46875 -5.15625 L 3.40625 -5.15625 Z M 2.59375 -2.625 "/></g></g></g><g fill="rgb(0%, 0%, 0%)" fill-opacity="1"><g transform="translate(219.186806, 190.877918)"><g><path d="M 0.578125 0 L 0.578125 -6.6875 L 3.21875 -6.6875 C 3.976562 -6.6875 4.566406 -6.488281 4.984375 -6.09375 C 5.398438 -5.695312 5.609375 -5.164062 5.609375 -4.5 C 5.609375 -4.039062 5.503906 -3.648438 5.296875 -3.328125 C 5.097656 -3.003906 4.8125 -2.757812 4.4375 -2.59375 L 5.84375 0 L 4.296875 0 L 3.03125 -2.375 L 2 -2.375 L 2 0 Z M 2 -3.5 L 2.953125 -3.5 C 3.753906 -3.5 4.15625 -3.832031 4.15625 -4.5 C 4.15625 -5.1875 3.753906 -5.53125 2.953125 -5.53125 L 2 -5.53125 Z M 2 -3.5 "/></g></g></g><g fill="rgb(0%, 0%, 0%)" fill-opacity="1"><g transform="translate(227.37527, 190.877918)"><g><path d="M 6.171875 -6.6875 L 6.171875 0 L 4.953125 0 L 2.046875 -4.203125 L 2 -4.203125 L 2 0 L 0.578125 0 L 0.578125 -6.6875 L 1.828125 -6.6875 L 4.703125 -2.484375 L 4.765625 -2.484375 L 4.765625 -6.6875 Z M 6.171875 -6.6875 "/></g></g></g><g fill="rgb(0%, 0%, 0%)" fill-opacity="1"><g transform="translate(236.287127, 190.877918)"><g><path d="M 2 -6.6875 L 2 0 L 0.578125 0 L 0.578125 -6.6875 Z M 2 -6.6875 "/></g></g></g><g fill="rgb(0%, 0%, 0%)" fill-opacity="1"><g transform="translate(241.028071, 190.877918)"><g><path d="M 6.171875 -6.6875 L 6.171875 0 L 4.953125 0 L 2.046875 -4.203125 L 2 -4.203125 L 2 0 L 0.578125 0 L 0.578125 -6.6875 L 1.828125 -6.6875 L 4.703125 -2.484375 L 4.765625 -2.484375 L 4.765625 -6.6875 Z M 6.171875 -6.6875 "/></g></g></g><g fill="rgb(0%, 0%, 0%)" fill-opacity="1"><g transform="translate(249.939928, 190.877918)"><g><path d="M 5.015625 -4.515625 C 4.921875 -4.828125 4.753906 -5.070312 4.515625 -5.25 C 4.273438 -5.4375 3.972656 -5.53125 3.609375 -5.53125 C 3.097656 -5.53125 2.679688 -5.335938 2.359375 -4.953125 C 2.046875 -4.578125 1.890625 -4.039062 1.890625 -3.34375 C 1.890625 -2.644531 2.046875 -2.101562 2.359375 -1.71875 C 2.671875 -1.34375 3.09375 -1.15625 3.625 -1.15625 C 4.09375 -1.15625 4.460938 -1.273438 4.734375 -1.515625 C 5.003906 -1.765625 5.140625 -2.097656 5.140625 -2.515625 L 3.71875 -2.515625 L 3.71875 -3.578125 L 6.515625 -3.578125 L 6.515625 -2.734375 C 6.515625 -2.148438 6.390625 -1.644531 6.140625 -1.21875 C 5.890625 -0.800781 5.546875 -0.476562 5.109375 -0.25 C 4.679688 -0.0195312 4.1875 0.09375 3.625 0.09375 C 2.988281 0.09375 2.429688 -0.0390625 1.953125 -0.3125 C 1.484375 -0.59375 1.117188 -0.988281 0.859375 -1.5 C 0.597656 -2.019531 0.46875 -2.628906 0.46875 -3.328125 C 0.46875 -4.054688 0.601562 -4.675781 0.875 -5.1875 C 1.15625 -5.695312 1.53125 -6.085938 2 -6.359375 C 2.46875 -6.628906 3 -6.765625 3.59375 -6.765625 C 4.09375 -6.765625 4.546875 -6.671875 4.953125 -6.484375 C 5.367188 -6.296875 5.707031 -6.03125 5.96875 -5.6875 C 6.226562 -5.351562 6.390625 -4.960938 6.453125 -4.515625 Z M 5.015625 -4.515625 "/></g></g></g><g fill="rgb(0%, 0%, 0%)" fill-opacity="1"><g transform="translate(259.0864, 190.877918)"><g/></g></g><g fill="rgb(0%, 0%, 0%)" fill-opacity="1"><g transform="translate(263.380933, 190.877918)"><g><path d="M 2 -6.6875 L 2 0 L 0.578125 0 L 0.578125 -6.6875 Z M 2 -6.6875 "/></g></g></g><g fill="rgb(0%, 0%, 0%)" fill-opacity="1"><g transform="translate(268.121876, 190.877918)"><g><path d="M 6.171875 -6.6875 L 6.171875 0 L 4.953125 0 L 2.046875 -4.203125 L 2 -4.203125 L 2 0 L 0.578125 0 L 0.578125 -6.6875 L 1.828125 -6.6875 L 4.703125 -2.484375 L 4.765625 -2.484375 L 4.765625 -6.6875 Z M 6.171875 -6.6875 "/></g></g></g><g fill="rgb(0%, 0%, 0%)" fill-opacity="1"><g transform="translate(277.033733, 190.877918)"><g><path d="M 2 -6.6875 L 2 0 L 0.578125 0 L 0.578125 -6.6875 Z M 2 -6.6875 "/></g></g></g><g fill="rgb(0%, 0%, 0%)" fill-opacity="1"><g transform="translate(281.774677, 190.877918)"><g><path d="M 0.328125 -5.515625 L 0.328125 -6.6875 L 5.8125 -6.6875 L 5.8125 -5.515625 L 3.765625 -5.515625 L 3.765625 0 L 2.375 0 L 2.375 -5.515625 Z M 0.328125 -5.515625 "/></g></g></g><g fill="rgb(0%, 0%, 0%)" fill-opacity="1"><g transform="translate(290.073932, 190.877918)"><g><path d="M 2 -6.6875 L 2 0 L 0.578125 0 L 0.578125 -6.6875 Z M 2 -6.6875 "/></g></g></g><g fill="rgb(0%, 0%, 0%)" fill-opacity="1"><g transform="translate(294.814875, 190.877918)"><g><path d="M 1.734375 0 L 0.21875 0 L 2.53125 -6.6875 L 4.34375 -6.6875 L 6.65625 0 L 5.140625 0 L 4.640625 -1.53125 L 2.234375 -1.53125 Z M 2.59375 -2.625 L 4.28125 -2.625 L 3.46875 -5.15625 L 3.40625 -5.15625 Z M 2.59375 -2.625 "/></g></g></g><g fill="rgb(0%, 0%, 0%)" fill-opacity="1"><g transform="translate(303.844046, 190.877918)"><g><path d="M 0.328125 -5.515625 L 0.328125 -6.6875 L 5.8125 -6.6875 L 5.8125 -5.515625 L 3.765625 -5.515625 L 3.765625 0 L 2.375 0 L 2.375 -5.515625 Z M 0.328125 -5.515625 "/></g></g></g><g fill="rgb(0%, 0%, 0%)" fill-opacity="1"><g transform="translate(312.143301, 190.877918)"><g><path d="M 2 -6.6875 L 2 0 L 0.578125 0 L 0.578125 -6.6875 Z M 2 -6.6875 "/></g></g></g><g fill="rgb(0%, 0%, 0%)" fill-opacity="1"><g transform="translate(316.884244, 190.877918)"><g><path d="M 1.78125 -6.6875 L 3.40625 -1.609375 L 3.46875 -1.609375 L 5.078125 -6.6875 L 6.65625 -6.6875 L 4.34375 0 L 2.53125 0 L 0.21875 -6.6875 Z M 1.78125 -6.6875 "/></g></g></g><g fill="rgb(0%, 0%, 0%)" fill-opacity="1"><g transform="translate(325.913403, 190.877918)"><g><path d="M 0.578125 0 L 0.578125 -6.6875 L 5.078125 -6.6875 L 5.078125 -5.515625 L 2 -5.515625 L 2 -3.921875 L 4.84375 -3.921875 L 4.84375 -2.765625 L 2 -2.765625 L 2 -1.171875 L 5.09375 -1.171875 L 5.09375 0 Z M 0.578125 0 "/></g></g></g></svg>